<?xml version="1.0" standalone="no"?>
<!DOCTYPE svg PUBLIC "-//W3C//DTD SVG 20010904//EN"
 "http://www.w3.org/TR/2001/REC-SVG-20010904/DTD/svg10.dtd">
<svg version="1.0" xmlns="http://www.w3.org/2000/svg"
 width="2124.000000pt" height="1836.000000pt" viewBox="0 0 2124.000000 1836.000000"
 preserveAspectRatio="xMidYMid meet">

<g transform="translate(0.000000,1836.000000) scale(0.100000,-0.100000)"
fill="#000000" stroke="none">
<path d="M13055 16360 c-209 -42 -421 -142 -825 -389 -41 -25 -93 -58 -114
-73 -51 -36 -90 -36 -208 3 -163 53 -388 108 -548 134 -85 14 -168 27 -185 30
-16 3 -120 12 -230 20 -260 20 -732 19 -990 0 -380 -29 -818 -117 -1030 -206
-113 -47 -129 -43 -335 89 -47 30 -98 63 -115 72 -16 10 -60 36 -96 58 -115
71 -323 170 -433 206 -264 89 -480 79 -711 -34 -166 -80 -283 -180 -707 -603
-422 -420 -735 -751 -1006 -1062 -230 -265 -335 -463 -369 -696 -16 -110 -16
-124 0 -245 27 -199 77 -333 190 -501 148 -221 391 -389 672 -465 63 -17 108
-22 210 -22 167 0 277 27 409 101 67 38 205 143 256 197 19 20 44 36 54 36 21
0 21 6 -5 -260 -43 -443 -6 -770 118 -1043 145 -320 370 -551 726 -747 94 -52
147 -92 147 -112 0 -4 -10 -6 -22 -4 -13 3 -47 10 -76 16 -36 7 -624 10 -1800
10 -1895 0 -1837 1 -1994 -55 -230 -82 -448 -282 -551 -507 -46 -99 -59 -137
-76 -234 -8 -43 -11 -1134 -11 -3780 0 -3880 -1 -3757 38 -3904 10 -37 36
-108 55 -150 16 -34 79 -144 86 -150 3 -3 19 -23 35 -45 40 -54 136 -147 188
-183 48 -33 197 -112 211 -112 5 0 23 -6 40 -14 18 -8 67 -24 110 -35 77 -21
79 -21 2707 -21 1446 0 2630 -3 2633 -7 2 -5 1 -140 -2 -302 l-6 -293 -810 -2
-810 -1 -45 -24 c-87 -46 -124 -105 -125 -201 0 -98 46 -173 134 -217 34 -17
152 -18 2591 -17 1912 0 2565 3 2595 12 77 22 165 143 165 226 0 46 -33 117
-71 155 -74 73 -54 71 -947 71 -622 0 -792 3 -799 13 -8 14 -6 563 2 578 4 5
1031 9 2667 9 l2661 0 91 21 c351 82 653 377 726 710 16 72 7 7537 -10 7639
-11 69 -26 129 -42 170 -6 14 -15 36 -21 50 -41 104 -135 239 -235 338 -133
129 -288 209 -471 243 -100 18 -174 19 -1870 18 -971 0 -1793 -4 -1826 -9 -95
-12 -99 17 -7 61 26 12 74 40 107 62 272 182 420 318 540 496 108 162 130 214
225 526 15 47 32 235 37 405 5 135 -4 330 -23 523 -5 49 -4 57 11 57 10 0 45
-25 78 -56 196 -182 424 -264 675 -243 485 41 938 437 1022 894 32 173 32 169
15 286 -45 306 -144 495 -433 824 -236 269 -932 988 -1158 1195 -181 167 -252
229 -313 273 -258 190 -499 251 -766 197z m327 -450 c130 -40 280 -165 692
-573 288 -286 504 -515 815 -867 239 -268 295 -341 348 -446 40 -81 46 -101
50 -176 13 -203 -65 -384 -229 -532 -130 -119 -268 -176 -423 -177 -199 -2
-239 25 -612 407 l-288 295 -28 92 c-36 116 -75 225 -144 402 -151 384 -319
657 -562 908 -146 150 -268 249 -435 351 -23 15 -26 20 -15 30 42 38 357 218
439 250 144 57 283 70 392 36z m-5608 -17 c123 -29 546 -257 546 -294 0 -4
-37 -29 -82 -55 -236 -138 -502 -412 -685 -704 -138 -221 -225 -414 -335 -744
l-79 -239 -112 -111 c-62 -61 -193 -198 -291 -304 -259 -280 -323 -322 -498
-322 -96 0 -161 16 -258 63 -70 34 -102 58 -181 137 -78 77 -104 111 -137 177
-54 109 -76 212 -69 317 5 79 35 186 65 236 76 125 183 253 497 595 106 116
205 224 219 240 78 88 532 549 661 672 231 219 356 314 454 343 48 15 210 11
285 -7z m3266 -263 c101 -12 186 -23 188 -25 2 -2 -23 -32 -55 -68 -194 -214
-340 -511 -442 -897 -101 -385 -91 -896 25 -1255 90 -276 264 -551 449 -705
147 -123 280 -202 454 -270 472 -184 1018 -184 1571 0 80 27 172 60 204 74 33
15 62 24 65 20 12 -11 -1 -252 -19 -354 -85 -487 -435 -819 -1100 -1045 -524
-178 -918 -225 -1870 -225 -1030 0 -1537 58 -2070 236 -194 65 -499 227 -645
343 -71 56 -176 164 -220 226 -252 351 -277 782 -99 1665 158 776 373 1251
726 1598 266 262 535 417 933 537 239 72 451 113 764 145 276 28 271 28 631
24 250 -2 368 -8 510 -24z m855 -195 c198 -65 405 -177 582 -314 96 -75 272
-252 344 -346 231 -302 410 -716 519 -1200 47 -208 107 -516 112 -570 l3 -39
-80 -43 c-165 -87 -461 -178 -681 -208 -177 -25 -456 -16 -623 19 -209 45
-411 135 -554 247 -206 161 -350 443 -402 786 -19 127 -19 444 0 578 56 396
223 750 481 1025 38 40 83 81 99 92 36 22 62 18 200 -27z m4835 -5033 c127
-54 237 -157 295 -276 68 -138 62 177 70 -3836 8 -4045 12 -3729 -56 -3868
-64 -130 -212 -252 -348 -287 -58 -15 -573 -16 -6205 -16 -4468 0 -6155 3
-6191 11 -199 44 -402 245 -444 440 -6 29 -11 1385 -13 3740 l-3 3695 28 58
c38 82 92 165 135 210 52 53 151 116 219 137 56 18 251 19 6258 17 l6200 -2
55 -23z m-5805 -8732 c13 -11 15 -57 15 -300 0 -253 -2 -289 -16 -294 -9 -3
-226 -6 -484 -6 -362 0 -470 3 -478 13 -6 7 -9 120 -8 297 l1 284 24 6 c13 3
227 7 477 9 352 3 457 1 469 -9z"/>
<path d="M8883 13870 c-123 -25 -237 -124 -283 -247 -67 -179 -37 -353 81
-478 63 -66 115 -98 196 -119 250 -65 487 92 534 353 51 290 -228 550 -528
491z m310 -144 c18 -7 47 -30 66 -49 27 -28 35 -46 39 -85 4 -46 2 -52 -34
-91 -48 -54 -82 -71 -140 -71 -40 0 -51 5 -84 38 -65 64 -66 153 -4 222 45 50
97 62 157 36z"/>
<path d="M10150 13030 c-171 -21 -244 -65 -297 -179 -39 -82 -30 -161 31 -284
54 -108 150 -213 278 -304 73 -51 77 -56 72 -86 -20 -123 -57 -196 -123 -241
-67 -46 -192 -56 -276 -21 -70 30 -135 129 -135 208 0 40 -34 102 -72 128 -41
30 -132 38 -174 16 -94 -49 -126 -157 -89 -302 27 -103 64 -164 155 -256 65
-66 103 -95 160 -123 78 -38 186 -66 257 -66 134 0 324 73 430 166 l53 45 48
-48 c96 -96 268 -163 418 -163 256 0 464 135 574 373 92 198 31 377 -129 377
-101 0 -168 -60 -178 -157 -11 -112 -79 -193 -182 -214 -144 -30 -281 31 -333
149 -25 56 -41 152 -27 168 5 7 49 34 97 60 258 144 402 430 289 577 -74 97
-145 141 -267 164 -91 17 -475 25 -580 13z"/>
<path d="M11713 13852 c-103 -37 -170 -99 -224 -208 -131 -265 28 -583 311
-623 127 -17 226 5 317 73 207 152 230 470 49 652 -29 29 -81 65 -121 85 -64
31 -78 34 -175 37 -82 2 -116 -2 -157 -16z m368 -134 c44 -25 79 -85 79 -137
0 -46 -34 -96 -84 -126 -138 -81 -273 59 -193 200 46 81 123 105 198 63z"/>
<path d="M8610 4106 c0 -2 8 -10 18 -17 15 -13 16 -12 3 4 -13 16 -21 21 -21
13z"/>
</g>
</svg>
